G04 #@! TF.GenerationSoftware,KiCad,Pcbnew,(6.0.4-0)*
G04 #@! TF.CreationDate,2022-04-11T20:22:25+02:00*
G04 #@! TF.ProjectId,Controller,436f6e74-726f-46c6-9c65-722e6b696361,v1.0.0*
G04 #@! TF.SameCoordinates,Original*
G04 #@! TF.FileFunction,Legend,Bot*
G04 #@! TF.FilePolarity,Positive*
%FSLAX46Y46*%
G04 Gerber Fmt 4.6, Leading zero omitted, Abs format (unit mm)*
G04 Created by KiCad (PCBNEW (6.0.4-0)) date 2022-04-11 20:22:25*
%MOMM*%
%LPD*%
G01*
G04 APERTURE LIST*
%ADD10C,0.150000*%
%ADD11C,0.120000*%
%ADD12C,3.200000*%
%ADD13R,3.000000X3.000000*%
%ADD14C,3.000000*%
%ADD15R,1.700000X1.700000*%
%ADD16O,1.700000X1.700000*%
%ADD17R,1.980000X3.960000*%
%ADD18O,1.980000X3.960000*%
%ADD19C,1.524000*%
G04 APERTURE END LIST*
D10*
X168620000Y-124660000D02*
X141620000Y-124660000D01*
X141620000Y-124660000D02*
X141620000Y-97660000D01*
X141620000Y-97660000D02*
X168620000Y-97660000D01*
X168620000Y-97660000D02*
X168620000Y-124660000D01*
X162739047Y-64112380D02*
X163310476Y-64112380D01*
X163024761Y-64112380D02*
X163024761Y-63112380D01*
X163120000Y-63255238D01*
X163215238Y-63350476D01*
X163310476Y-63398095D01*
X162358095Y-63207619D02*
X162310476Y-63160000D01*
X162215238Y-63112380D01*
X161977142Y-63112380D01*
X161881904Y-63160000D01*
X161834285Y-63207619D01*
X161786666Y-63302857D01*
X161786666Y-63398095D01*
X161834285Y-63540952D01*
X162405714Y-64112380D01*
X161786666Y-64112380D01*
X161500952Y-63112380D02*
X161167619Y-64112380D01*
X160834285Y-63112380D01*
X155511428Y-107132380D02*
X155844761Y-106656190D01*
X156082857Y-107132380D02*
X156082857Y-106132380D01*
X155701904Y-106132380D01*
X155606666Y-106180000D01*
X155559047Y-106227619D01*
X155511428Y-106322857D01*
X155511428Y-106465714D01*
X155559047Y-106560952D01*
X155606666Y-106608571D01*
X155701904Y-106656190D01*
X156082857Y-106656190D01*
X155225714Y-106132380D02*
X154654285Y-106132380D01*
X154940000Y-107132380D02*
X154940000Y-106132380D01*
X153749523Y-107037142D02*
X153797142Y-107084761D01*
X153940000Y-107132380D01*
X154035238Y-107132380D01*
X154178095Y-107084761D01*
X154273333Y-106989523D01*
X154320952Y-106894285D01*
X154368571Y-106703809D01*
X154368571Y-106560952D01*
X154320952Y-106370476D01*
X154273333Y-106275238D01*
X154178095Y-106180000D01*
X154035238Y-106132380D01*
X153940000Y-106132380D01*
X153797142Y-106180000D01*
X153749523Y-106227619D01*
X147881904Y-63160000D02*
X147977142Y-63112380D01*
X148120000Y-63112380D01*
X148262857Y-63160000D01*
X148358095Y-63255238D01*
X148405714Y-63350476D01*
X148453333Y-63540952D01*
X148453333Y-63683809D01*
X148405714Y-63874285D01*
X148358095Y-63969523D01*
X148262857Y-64064761D01*
X148120000Y-64112380D01*
X148024761Y-64112380D01*
X147881904Y-64064761D01*
X147834285Y-64017142D01*
X147834285Y-63683809D01*
X148024761Y-63683809D01*
X147405714Y-64112380D02*
X147405714Y-63112380D01*
X146834285Y-64112380D01*
X146834285Y-63112380D01*
X146358095Y-64112380D02*
X146358095Y-63112380D01*
X146120000Y-63112380D01*
X145977142Y-63160000D01*
X145881904Y-63255238D01*
X145834285Y-63350476D01*
X145786666Y-63540952D01*
X145786666Y-63683809D01*
X145834285Y-63874285D01*
X145881904Y-63969523D01*
X145977142Y-64064761D01*
X146120000Y-64112380D01*
X146358095Y-64112380D01*
X124953333Y-124112380D02*
X124953333Y-124826666D01*
X125000952Y-124969523D01*
X125096190Y-125064761D01*
X125239047Y-125112380D01*
X125334285Y-125112380D01*
X124048571Y-124112380D02*
X124239047Y-124112380D01*
X124334285Y-124160000D01*
X124381904Y-124207619D01*
X124477142Y-124350476D01*
X124524761Y-124540952D01*
X124524761Y-124921904D01*
X124477142Y-125017142D01*
X124429523Y-125064761D01*
X124334285Y-125112380D01*
X124143809Y-125112380D01*
X124048571Y-125064761D01*
X124000952Y-125017142D01*
X123953333Y-124921904D01*
X123953333Y-124683809D01*
X124000952Y-124588571D01*
X124048571Y-124540952D01*
X124143809Y-124493333D01*
X124334285Y-124493333D01*
X124429523Y-124540952D01*
X124477142Y-124588571D01*
X124524761Y-124683809D01*
X164782380Y-91696666D02*
X165496666Y-91696666D01*
X165639523Y-91649047D01*
X165734761Y-91553809D01*
X165782380Y-91410952D01*
X165782380Y-91315714D01*
X164782380Y-92077619D02*
X164782380Y-92744285D01*
X165782380Y-92315714D01*
X155273333Y-68112380D02*
X155273333Y-68826666D01*
X155320952Y-68969523D01*
X155416190Y-69064761D01*
X155559047Y-69112380D01*
X155654285Y-69112380D01*
X154844761Y-68207619D02*
X154797142Y-68160000D01*
X154701904Y-68112380D01*
X154463809Y-68112380D01*
X154368571Y-68160000D01*
X154320952Y-68207619D01*
X154273333Y-68302857D01*
X154273333Y-68398095D01*
X154320952Y-68540952D01*
X154892380Y-69112380D01*
X154273333Y-69112380D01*
D11*
X163890000Y-86540000D02*
X162560000Y-86540000D01*
X161762385Y-97740000D02*
X161762385Y-89110000D01*
X160380000Y-89110000D02*
X160380000Y-88700000D01*
X162943335Y-97740000D02*
X162943335Y-89110000D01*
X156210000Y-97740000D02*
X156210000Y-89110000D01*
X162200000Y-89110000D02*
X162200000Y-88760000D01*
X155300000Y-89110000D02*
X155300000Y-88700000D01*
X153670000Y-97740000D02*
X153670000Y-89110000D01*
X146960000Y-89110000D02*
X146960000Y-88700000D01*
X162470955Y-97740000D02*
X162470955Y-89110000D01*
X162234765Y-97740000D02*
X162234765Y-89110000D01*
X161408100Y-97740000D02*
X161408100Y-89110000D01*
X163651905Y-97740000D02*
X163651905Y-89110000D01*
X161998575Y-97740000D02*
X161998575Y-89110000D01*
X162920000Y-89110000D02*
X162920000Y-88760000D01*
X163890000Y-87650000D02*
X163890000Y-86540000D01*
X162589050Y-97740000D02*
X162589050Y-89110000D01*
X157840000Y-89110000D02*
X157840000Y-88700000D01*
X161880480Y-97740000D02*
X161880480Y-89110000D01*
X151130000Y-97740000D02*
X151130000Y-89110000D01*
X163890000Y-89110000D02*
X145990000Y-89110000D01*
X163179525Y-97740000D02*
X163179525Y-89110000D01*
X162707145Y-97740000D02*
X162707145Y-89110000D01*
X162352860Y-97740000D02*
X162352860Y-89110000D01*
X157120000Y-89110000D02*
X157120000Y-88700000D01*
X154580000Y-89110000D02*
X154580000Y-88700000D01*
X152760000Y-89110000D02*
X152760000Y-88700000D01*
X162825240Y-97740000D02*
X162825240Y-89110000D01*
X147680000Y-89110000D02*
X147680000Y-88700000D01*
X152040000Y-89110000D02*
X152040000Y-88700000D01*
X161526195Y-97740000D02*
X161526195Y-89110000D01*
X161644290Y-97740000D02*
X161644290Y-89110000D01*
X163890000Y-97740000D02*
X163890000Y-89110000D01*
X148590000Y-97740000D02*
X148590000Y-89110000D01*
X159660000Y-89110000D02*
X159660000Y-88700000D01*
X163890000Y-97740000D02*
X145990000Y-97740000D01*
X163061430Y-97740000D02*
X163061430Y-89110000D01*
X158750000Y-97740000D02*
X158750000Y-89110000D01*
X163533810Y-97740000D02*
X163533810Y-89110000D01*
X163770000Y-97740000D02*
X163770000Y-89110000D01*
X163415715Y-97740000D02*
X163415715Y-89110000D01*
X163297620Y-97740000D02*
X163297620Y-89110000D01*
X149500000Y-89110000D02*
X149500000Y-88700000D01*
X162116670Y-97740000D02*
X162116670Y-89110000D01*
X161290000Y-97740000D02*
X161290000Y-89110000D01*
X145990000Y-97740000D02*
X145990000Y-89110000D01*
X150220000Y-89110000D02*
X150220000Y-88700000D01*
X160020000Y-67310000D02*
X149860000Y-67310000D01*
X149860000Y-59690000D02*
X160020000Y-59690000D01*
X149860000Y-66040000D02*
X160020000Y-66040000D01*
X160020000Y-59690000D02*
X160020000Y-67310000D01*
X149860000Y-67310000D02*
X149860000Y-59690000D01*
%LPC*%
D12*
X168833800Y-63000000D03*
X121920000Y-129000000D03*
X121767600Y-62534800D03*
D13*
X125958600Y-78028800D03*
D14*
X125958600Y-72948800D03*
D15*
X137160000Y-106680000D03*
D16*
X137160000Y-104140000D03*
X137160000Y-101600000D03*
X137160000Y-99060000D03*
X137160000Y-96520000D03*
D15*
X121920000Y-124460000D03*
D16*
X121920000Y-121920000D03*
X121920000Y-119380000D03*
X121920000Y-116840000D03*
X121920000Y-114300000D03*
X121920000Y-111760000D03*
D17*
X152400000Y-127000000D03*
D18*
X157400000Y-127000000D03*
D13*
X125958600Y-99745800D03*
D14*
X125958600Y-94665800D03*
D13*
X125984000Y-88900000D03*
D14*
X125984000Y-83820000D03*
D12*
X168000000Y-129000000D03*
D19*
X142240000Y-71120000D03*
X142240000Y-73660000D03*
X142240000Y-76200000D03*
X142240000Y-78740000D03*
X142240000Y-81280000D03*
X142240000Y-83820000D03*
X142240000Y-86360000D03*
X142240000Y-88900000D03*
X142240000Y-91440000D03*
X142240000Y-93980000D03*
X142240000Y-96520000D03*
X142240000Y-99060000D03*
X142240000Y-101600000D03*
X142240000Y-104140000D03*
X142240000Y-106680000D03*
X142240000Y-109220000D03*
X142240000Y-111760000D03*
X142240000Y-114300000D03*
X167640000Y-114300000D03*
X167640000Y-111760000D03*
X167640000Y-109220000D03*
X167640000Y-106680000D03*
X167640000Y-104140000D03*
X167640000Y-101600000D03*
X167640000Y-99060000D03*
X167640000Y-96520000D03*
X167640000Y-93980000D03*
X167640000Y-91440000D03*
X167640000Y-88900000D03*
X167640000Y-86360000D03*
X167640000Y-83820000D03*
X167640000Y-81280000D03*
X167640000Y-78740000D03*
X167640000Y-76200000D03*
X167640000Y-73660000D03*
X167640000Y-71120000D03*
D15*
X162560000Y-87650000D03*
D16*
X160020000Y-87650000D03*
X157480000Y-87650000D03*
X154940000Y-87650000D03*
X152400000Y-87650000D03*
X149860000Y-87650000D03*
X147320000Y-87650000D03*
D13*
X157480000Y-63500000D03*
D14*
X152400000Y-63500000D03*
M02*
